<svg width="360" height="498" viewBox="0 0 360 498" fill="none" xmlns="http://www.w3.org/2000/svg">
<path d="M116.859 326.274C123.003 326.274 127.835 326.914 131.355 328.194C134.875 329.474 137.371 331.682 138.843 334.818C140.379 337.954 141.147 342.338 141.147 347.97C141.147 353.602 140.411 357.986 138.939 361.122C137.531 364.258 135.195 366.466 131.931 367.746C128.667 368.962 124.251 369.57 118.683 369.57C115.739 369.57 112.859 369.442 110.043 369.186C107.227 368.93 104.603 368.61 102.171 368.226C99.7394 367.842 97.6594 367.458 95.9314 367.074C94.2034 366.626 93.0194 366.21 92.3794 365.826L92.6674 358.53C96.4434 358.53 100.347 358.53 104.379 358.53C108.475 358.53 112.507 358.53 116.475 358.53C119.035 358.466 121.019 358.146 122.427 357.57C123.899 356.994 124.923 355.938 125.499 354.402C126.139 352.866 126.459 350.722 126.459 347.97C126.459 345.154 126.139 342.978 125.499 341.442C124.923 339.906 123.899 338.85 122.427 338.274C121.019 337.634 119.035 337.314 116.475 337.314C110.587 337.314 105.531 337.346 101.307 337.41C97.0834 337.474 94.2354 337.602 92.7634 337.794L91.3234 327.234C94.0114 326.914 96.5394 326.69 98.9074 326.562C101.275 326.434 103.835 326.37 106.587 326.37C109.403 326.306 112.827 326.274 116.859 326.274ZM106.011 327.234V393.474H91.3234V327.234H106.011ZM176.583 326.082C179.719 326.082 182.375 326.178 184.551 326.37C186.791 326.498 188.839 326.722 190.695 327.042C192.551 327.362 194.471 327.81 196.455 328.386L195.303 339.138C193.191 339.01 191.239 338.914 189.447 338.85C187.719 338.786 185.831 338.754 183.783 338.754C181.799 338.69 179.399 338.658 176.583 338.658C173.319 338.658 170.759 339.298 168.903 340.578C167.111 341.858 165.831 344.098 165.063 347.298C164.295 350.434 163.911 354.786 163.911 360.354C163.911 365.922 164.295 370.306 165.063 373.506C165.831 376.642 167.111 378.85 168.903 380.13C170.759 381.41 173.319 382.05 176.583 382.05C180.999 382.05 184.711 381.986 187.719 381.858C190.727 381.73 193.703 381.506 196.647 381.186L197.895 391.938C194.823 392.898 191.687 393.57 188.487 393.954C185.287 394.402 181.319 394.626 176.583 394.626C169.735 394.626 164.231 393.538 160.071 391.362C155.975 389.122 152.999 385.506 151.143 380.514C149.351 375.522 148.455 368.802 148.455 360.354C148.455 351.906 149.351 345.186 151.143 340.194C152.999 335.202 155.975 331.618 160.071 329.442C164.231 327.202 169.735 326.082 176.583 326.082ZM222.076 327.234V393.474H207.388V327.234H222.076ZM246.556 327.234V337.506H221.308V327.234H246.556ZM260.188 327.234V393.474H245.5V327.234H260.188Z" fill="white"/>
<path d="M176.787 2.69466C178.645 1.13602 181.355 1.13602 183.213 2.69466L325.355 121.906C328.932 124.906 326.811 130.737 322.142 130.737H37.8581C33.1894 130.737 31.068 124.906 34.6451 121.906L176.787 2.69466Z" fill="white"/>
<rect x="51.1579" y="109.895" width="257.684" height="187.579" rx="10" fill="white"/>
</svg>
